<mxfile host="app.diagrams.net" agent="Mozilla/5.0 (Windows NT 10.0; Win64; x64) AppleWebKit/537.36 (KHTML, like Gecko) Chrome/130.0.0.0 Safari/537.36 Edg/130.0.0.0" version="24.8.3">
  <diagram name="Page-1" id="oKedkT_ken_QMWFXygu-">
    <mxGraphModel grid="1" page="1" gridSize="10" guides="1" tooltips="1" connect="1" arrows="1" fold="1" pageScale="1" pageWidth="1169" pageHeight="1654" math="0" shadow="0">
      <root>
        <mxCell id="0" />
        <mxCell id="1" parent="0" />
        <mxCell id="L4xWQktsAyM8dat_EXcm-1" style="edgeStyle=orthogonalEdgeStyle;rounded=0;orthogonalLoop=1;jettySize=auto;html=1;" edge="1" parent="1" source="L4xWQktsAyM8dat_EXcm-2">
          <mxGeometry relative="1" as="geometry">
            <mxPoint x="450" y="170" as="targetPoint" />
          </mxGeometry>
        </mxCell>
        <mxCell id="L4xWQktsAyM8dat_EXcm-2" value="&lt;font size=&quot;3&quot;&gt;START&lt;/font&gt;" style="ellipse;whiteSpace=wrap;html=1;" vertex="1" parent="1">
          <mxGeometry x="390" y="30" width="120" height="80" as="geometry" />
        </mxCell>
        <mxCell id="L4xWQktsAyM8dat_EXcm-3" style="edgeStyle=orthogonalEdgeStyle;rounded=0;orthogonalLoop=1;jettySize=auto;html=1;" edge="1" parent="1" source="L4xWQktsAyM8dat_EXcm-4">
          <mxGeometry relative="1" as="geometry">
            <mxPoint x="450" y="310" as="targetPoint" />
          </mxGeometry>
        </mxCell>
        <mxCell id="L4xWQktsAyM8dat_EXcm-4" value="char= enter any character" style="shape=parallelogram;perimeter=parallelogramPerimeter;whiteSpace=wrap;html=1;fixedSize=1;size=30;" vertex="1" parent="1">
          <mxGeometry x="335" y="170" width="230" height="60" as="geometry" />
        </mxCell>
        <mxCell id="L4xWQktsAyM8dat_EXcm-5" style="edgeStyle=orthogonalEdgeStyle;rounded=0;orthogonalLoop=1;jettySize=auto;html=1;" edge="1" parent="1" source="L4xWQktsAyM8dat_EXcm-9">
          <mxGeometry relative="1" as="geometry">
            <mxPoint x="260" y="460" as="targetPoint" />
          </mxGeometry>
        </mxCell>
        <mxCell id="L4xWQktsAyM8dat_EXcm-6" value="Y" style="edgeLabel;html=1;align=center;verticalAlign=middle;resizable=0;points=[];" connectable="0" vertex="1" parent="L4xWQktsAyM8dat_EXcm-5">
          <mxGeometry x="-0.5224" relative="1" as="geometry">
            <mxPoint as="offset" />
          </mxGeometry>
        </mxCell>
        <mxCell id="L4xWQktsAyM8dat_EXcm-7" style="edgeStyle=orthogonalEdgeStyle;rounded=0;orthogonalLoop=1;jettySize=auto;html=1;" edge="1" parent="1" source="L4xWQktsAyM8dat_EXcm-9">
          <mxGeometry relative="1" as="geometry">
            <mxPoint x="650" y="460" as="targetPoint" />
          </mxGeometry>
        </mxCell>
        <mxCell id="L4xWQktsAyM8dat_EXcm-8" value="N" style="edgeLabel;html=1;align=center;verticalAlign=middle;resizable=0;points=[];" connectable="0" vertex="1" parent="L4xWQktsAyM8dat_EXcm-7">
          <mxGeometry x="-0.4134" y="-2" relative="1" as="geometry">
            <mxPoint as="offset" />
          </mxGeometry>
        </mxCell>
        <mxCell id="L4xWQktsAyM8dat_EXcm-9" value="if char. isupper()" style="rhombus;whiteSpace=wrap;html=1;" vertex="1" parent="1">
          <mxGeometry x="385" y="310" width="130" height="80" as="geometry" />
        </mxCell>
        <mxCell id="L4xWQktsAyM8dat_EXcm-10" style="edgeStyle=orthogonalEdgeStyle;rounded=0;orthogonalLoop=1;jettySize=auto;html=1;" edge="1" parent="1" source="L4xWQktsAyM8dat_EXcm-11">
          <mxGeometry relative="1" as="geometry">
            <mxPoint x="430" y="840" as="targetPoint" />
            <Array as="points">
              <mxPoint x="260" y="840" />
            </Array>
          </mxGeometry>
        </mxCell>
        <mxCell id="L4xWQktsAyM8dat_EXcm-11" value="print(character is an uppercase alphabet)" style="shape=parallelogram;perimeter=parallelogramPerimeter;whiteSpace=wrap;html=1;fixedSize=1;" vertex="1" parent="1">
          <mxGeometry x="130" y="460" width="270" height="60" as="geometry" />
        </mxCell>
        <mxCell id="L4xWQktsAyM8dat_EXcm-12" style="edgeStyle=orthogonalEdgeStyle;rounded=0;orthogonalLoop=1;jettySize=auto;html=1;" edge="1" parent="1" source="L4xWQktsAyM8dat_EXcm-16">
          <mxGeometry relative="1" as="geometry">
            <mxPoint x="490" y="610" as="targetPoint" />
          </mxGeometry>
        </mxCell>
        <mxCell id="L4xWQktsAyM8dat_EXcm-13" value="Y" style="edgeLabel;html=1;align=center;verticalAlign=middle;resizable=0;points=[];" connectable="0" vertex="1" parent="L4xWQktsAyM8dat_EXcm-12">
          <mxGeometry x="-0.5589" y="-1" relative="1" as="geometry">
            <mxPoint as="offset" />
          </mxGeometry>
        </mxCell>
        <mxCell id="L4xWQktsAyM8dat_EXcm-14" style="edgeStyle=orthogonalEdgeStyle;rounded=0;orthogonalLoop=1;jettySize=auto;html=1;" edge="1" parent="1" source="L4xWQktsAyM8dat_EXcm-16">
          <mxGeometry relative="1" as="geometry">
            <mxPoint x="830" y="610" as="targetPoint" />
          </mxGeometry>
        </mxCell>
        <mxCell id="L4xWQktsAyM8dat_EXcm-15" value="N" style="edgeLabel;html=1;align=center;verticalAlign=middle;resizable=0;points=[];" connectable="0" vertex="1" parent="L4xWQktsAyM8dat_EXcm-14">
          <mxGeometry x="-0.4803" y="1" relative="1" as="geometry">
            <mxPoint as="offset" />
          </mxGeometry>
        </mxCell>
        <mxCell id="L4xWQktsAyM8dat_EXcm-16" value="if char.islower()" style="rhombus;whiteSpace=wrap;html=1;" vertex="1" parent="1">
          <mxGeometry x="580" y="460" width="145" height="80" as="geometry" />
        </mxCell>
        <mxCell id="L4xWQktsAyM8dat_EXcm-17" style="edgeStyle=orthogonalEdgeStyle;rounded=0;orthogonalLoop=1;jettySize=auto;html=1;" edge="1" parent="1" source="L4xWQktsAyM8dat_EXcm-18">
          <mxGeometry relative="1" as="geometry">
            <mxPoint x="482.5" y="780" as="targetPoint" />
          </mxGeometry>
        </mxCell>
        <mxCell id="L4xWQktsAyM8dat_EXcm-18" value="print(character is a lowercase alphabet)" style="shape=parallelogram;perimeter=parallelogramPerimeter;whiteSpace=wrap;html=1;fixedSize=1;" vertex="1" parent="1">
          <mxGeometry x="340" y="610" width="285" height="60" as="geometry" />
        </mxCell>
        <mxCell id="L4xWQktsAyM8dat_EXcm-19" style="edgeStyle=orthogonalEdgeStyle;rounded=0;orthogonalLoop=1;jettySize=auto;html=1;" edge="1" parent="1" source="L4xWQktsAyM8dat_EXcm-20">
          <mxGeometry relative="1" as="geometry">
            <mxPoint x="530" y="838" as="targetPoint" />
            <Array as="points">
              <mxPoint x="830" y="810" />
              <mxPoint x="831" y="810" />
              <mxPoint x="831" y="838" />
            </Array>
          </mxGeometry>
        </mxCell>
        <mxCell id="L4xWQktsAyM8dat_EXcm-20" value="print(character is not an alphabet)" style="shape=parallelogram;perimeter=parallelogramPerimeter;whiteSpace=wrap;html=1;fixedSize=1;" vertex="1" parent="1">
          <mxGeometry x="690" y="610" width="280" height="60" as="geometry" />
        </mxCell>
        <mxCell id="L4xWQktsAyM8dat_EXcm-21" value="" style="ellipse;whiteSpace=wrap;html=1;" vertex="1" parent="1">
          <mxGeometry x="442.5" y="790" width="80" height="80" as="geometry" />
        </mxCell>
        <mxCell id="L4xWQktsAyM8dat_EXcm-22" value="&lt;font size=&quot;3&quot;&gt;STOP&lt;/font&gt;" style="ellipse;whiteSpace=wrap;html=1;" vertex="1" parent="1">
          <mxGeometry x="420" y="1000" width="120" height="80" as="geometry" />
        </mxCell>
        <mxCell id="L4xWQktsAyM8dat_EXcm-23" style="edgeStyle=orthogonalEdgeStyle;rounded=0;orthogonalLoop=1;jettySize=auto;html=1;" edge="1" parent="1" source="L4xWQktsAyM8dat_EXcm-21">
          <mxGeometry relative="1" as="geometry">
            <mxPoint x="482" y="1000" as="targetPoint" />
          </mxGeometry>
        </mxCell>
      </root>
    </mxGraphModel>
  </diagram>
</mxfile>
